<svg width="93" height="93" viewBox="0 0 93 93" fill="none" xmlns="http://www.w3.org/2000/svg">
<g clip-path="url(#clip0_434_617)">
<path d="M68.4698 7.21699L64.4716 47.6626L57.8205 47.6625L54.2167 25.6069C53.312 16.9984 58.2263 8.83387 66.2568 5.60354C67.3641 5.15814 68.5552 6.02657 68.4698 7.21699Z" fill="#D5D5D5"/>
<path d="M30.8895 47.6625L28.2066 83.2749C28.1522 85.6004 30.0226 87.5151 32.349 87.5151H36.0746C38.4011 87.5151 40.2714 85.6004 40.217 83.2749L37.5405 47.6625H30.8895Z" fill="#767676"/>
<path d="M57.8205 47.6625L55.1376 83.2749C55.0833 85.6004 56.9536 87.5151 59.28 87.5151H63.0057C65.3321 87.5151 67.2024 85.6004 67.1481 83.2749L64.4716 47.6625H57.8205Z" fill="#767676"/>
<path d="M37.4162 45.9C37.4351 43.3934 39.3943 42.6921 39.3943 42.6921L39.3831 42.6807C39.4655 42.6407 39.5531 42.6206 39.6352 42.5785L44.537 40.8385C47.2168 39.4688 48.8477 36.0625 48.5017 32.5574L45.0453 7.45805C44.8896 6.32733 43.9231 5.48499 42.7816 5.48499C41.5086 5.48499 40.4808 6.52545 40.4968 7.79864L40.7674 29.4383C40.7674 30.2434 40.374 30.966 39.7631 31.2763C39.357 31.4846 38.8922 31.4846 38.4859 31.2763C37.8767 30.9641 37.4816 30.2435 37.4816 29.4383L37.1137 7.73108C37.0926 6.48457 36.0759 5.48499 34.829 5.48499H33.5931C32.3463 5.48499 31.3297 6.48457 31.3086 7.73108L30.9403 29.4383C30.9403 30.2434 30.5469 30.966 29.9345 31.2763C29.5314 31.4846 29.065 31.4846 28.6589 31.2763C28.0497 30.9641 27.6546 30.2435 27.6546 29.4383L27.9266 7.79864C27.9426 6.52545 26.9149 5.48499 25.6417 5.48499C24.5002 5.48499 23.5339 6.32733 23.3782 7.45805L19.9218 32.5574C19.5758 36.0625 21.2069 39.4668 23.885 40.8385L28.787 42.5785C28.8662 42.6191 28.9505 42.6384 29.0302 42.677L29.0156 42.6921C29.0156 42.6921 31.0654 43.4104 31.0043 46.0397L30.8895 47.6625H37.5405L37.4162 45.9Z" fill="#D5D5D5"/>
</g>
<defs>
<clipPath id="clip0_434_617">
<rect width="93" height="93" fill="white"/>
</clipPath>
</defs>
</svg>
