<svg width="100" height="100" viewBox="0 0 100 100" fill="none" xmlns="http://www.w3.org/2000/svg">
<g clip-path="url(#clip0_242_121)">
<path d="M73.6235 7.7602L69.3243 51.2501L62.1727 51.25L58.2975 27.5343C57.3248 18.2778 62.6089 9.49877 71.2439 6.0253C72.4345 5.54637 73.7153 6.48017 73.6235 7.7602Z" fill="#D5D5D5"/>
<path d="M33.2146 51.25L30.3298 89.5429C30.2713 92.0435 32.2825 94.1022 34.784 94.1022H38.79C41.2916 94.1022 43.3027 92.0435 43.2442 89.5429L40.3663 51.25H33.2146Z" fill="#767676"/>
<path d="M62.1726 51.25L59.2878 89.5429C59.2294 92.0435 61.2405 94.1022 63.742 94.1022H67.7481C70.2496 94.1022 72.2607 92.0435 72.2023 89.5429L69.3243 51.25H62.1726Z" fill="#767676"/>
<path d="M40.2326 49.3548C40.2529 46.6595 42.3595 45.9054 42.3595 45.9054L42.3475 45.8932C42.4361 45.8502 42.5302 45.8285 42.6186 45.7834L47.8893 43.9123C50.7708 42.4396 52.5244 38.7768 52.1524 35.0079L48.4359 8.01938C48.2685 6.80355 47.2292 5.8978 46.0018 5.8978C44.6329 5.8978 43.5278 7.01658 43.545 8.3856L43.836 31.654C43.836 32.5198 43.413 33.2968 42.7561 33.6304C42.3194 33.8544 41.8197 33.8544 41.3828 33.6304C40.7277 33.2947 40.3029 32.5198 40.3029 31.654L39.9072 8.31295C39.8845 6.97263 38.7914 5.8978 37.4506 5.8978H36.1217C34.7811 5.8978 33.6879 6.97263 33.6652 8.31295L33.2692 31.654C33.2692 32.5198 32.8462 33.2968 32.1876 33.6304C31.7543 33.8544 31.2528 33.8544 30.816 33.6304C30.161 33.2947 29.7361 32.5198 29.7361 31.654L30.0287 8.3856C30.0459 7.01658 28.9409 5.8978 27.5718 5.8978C26.3444 5.8978 25.3053 6.80355 25.1379 8.01938L21.4213 35.0079C21.0493 38.7768 22.8031 42.4374 25.6828 43.9123L30.9538 45.7834C31.0389 45.827 31.1296 45.8478 31.2153 45.8893L31.1996 45.9054C31.1996 45.9054 33.4037 46.6778 33.338 49.505L33.2145 51.25H40.3662L40.2326 49.3548Z" fill="#D5D5D5"/>
</g>
<defs>
<clipPath id="clip0_242_121">
<rect width="100" height="100" fill="white"/>
</clipPath>
</defs>
</svg>
