<svg width="93" height="93" viewBox="0 0 93 93" fill="none" xmlns="http://www.w3.org/2000/svg">
<g clip-path="url(#clip0_434_738)">
<path d="M83.5675 26.3887H9.43255C6.79123 26.3887 4.65002 28.5299 4.65002 31.1713V71.0055C4.65002 73.6468 6.79123 75.788 9.43255 75.788H83.5675C86.2088 75.788 88.35 73.6468 88.35 71.0055V31.1713C88.35 28.5299 86.2088 26.3887 83.5675 26.3887Z" fill="#EFB100"/>
<path d="M83.5675 17.212H9.43255C6.79123 17.212 4.65002 19.3532 4.65002 21.9945V61.8287C4.65002 64.47 6.79123 66.6113 9.43255 66.6113H83.5675C86.2088 66.6113 88.35 64.47 88.35 61.8287V21.9945C88.35 19.3532 86.2088 17.212 83.5675 17.212Z" fill="#FFC33A"/>
<path d="M55.0351 17.212H37.965V66.6113H55.0351V17.212Z" fill="#FFDB87"/>
<path d="M55.0351 66.6113H37.965V75.788H55.0351V66.6113Z" fill="#FFC84D"/>
<path d="M22.0968 39.0833C22.0968 39.0833 27.0235 45.3747 34.7262 42.3011C39.8784 40.2481 40.448 33.2289 30.4459 32.0246C20.4414 30.8249 21.011 23.8034 26.1632 21.7481C31.9409 19.4463 36.1561 22.4084 37.9045 24.0312" stroke="#CB8C00" stroke-width="2.402" stroke-linecap="round" stroke-linejoin="round"/>
<path d="M30.4436 16.912V20.9017" stroke="#CB8C00" stroke-width="2.402" stroke-linecap="round" stroke-linejoin="round"/>
<path d="M30.4436 47.137V43.1473" stroke="#CB8C00" stroke-width="2.402" stroke-linecap="round" stroke-linejoin="round"/>
</g>
<defs>
<clipPath id="clip0_434_738">
<rect width="93" height="93" fill="white"/>
</clipPath>
</defs>
</svg>
