<svg width="93" height="93" viewBox="0 0 93 93" fill="none" xmlns="http://www.w3.org/2000/svg">
<g clip-path="url(#clip0_716_412)">
<path d="M63.0935 22.3084H29.9064C25.7168 22.3084 22.3083 25.7168 22.3083 29.9065V63.0912C22.3083 67.2809 25.7168 70.6893 29.9064 70.6893H63.0912C67.2808 70.6893 70.6893 67.2809 70.6893 63.0912V29.9065C70.6893 25.7168 67.2832 22.3084 63.0935 22.3084ZM60.5662 36.5444L48.5553 48.5553C48.367 48.7436 48.1368 48.8552 47.9159 48.9808C47.8066 49.0436 47.7136 49.1459 47.5974 49.1924C47.2463 49.3365 46.8743 49.4086 46.5 49.4086C46.1303 49.4086 45.7606 49.3365 45.4119 49.197C45.3003 49.1528 45.2119 49.0552 45.105 48.9947C44.8818 48.8692 44.6493 48.7576 44.4586 48.5693L36.2444 40.4527C35.1028 39.3251 35.0912 37.486 36.2188 36.3421C37.3464 35.1982 39.1855 35.1889 40.3294 36.3165L46.4884 42.4034L56.4556 32.4361C57.5902 31.3015 59.4293 31.3015 60.5662 32.4361C61.7031 33.5707 61.7008 35.4074 60.5662 36.5444Z" fill="#B6D6FF"/>
<path d="M63.0935 16.4959C63.8794 16.4959 64.6443 16.5773 65.393 16.7075L63.2284 8.32583C62.1403 4.11293 58.3389 1.16715 53.9865 1.16715H39.0135C34.6611 1.16715 30.8597 4.1106 29.7716 8.32583L27.6071 16.7075C28.3557 16.5773 29.1206 16.4959 29.9065 16.4959H63.0935Z" fill="#007FF3"/>
<path d="M29.9065 76.5018C29.1183 76.5018 28.3534 76.4204 27.6024 76.2902L29.7716 84.6858C30.8597 88.8987 34.6611 91.8422 39.0135 91.8422H53.9865C58.3389 91.8422 62.1403 88.8987 63.2284 84.6858L65.3976 76.2902C64.6466 76.4204 63.8817 76.5018 63.0935 76.5018H29.9065Z" fill="#007FF3"/>
<path d="M44.4447 44.4447L46.4861 42.4034L40.3271 36.3165C39.1856 35.1889 37.3465 35.2005 36.2165 36.3421C35.0866 37.4837 35.1005 39.3227 36.2421 40.4527L44.4563 48.5693C44.647 48.7576 44.8795 48.8692 45.1027 48.9947C44.8748 48.8669 44.6377 48.7529 44.4447 48.5576C43.3101 47.423 43.3101 45.584 44.4447 44.447V44.4447Z" fill="#3182F6"/>
<path d="M65.3929 16.7075C64.6443 16.5773 63.8793 16.4959 63.0935 16.4959H29.9064C29.1206 16.4959 28.3557 16.5773 27.607 16.7075C21.2993 17.8002 16.4982 23.2849 16.4982 29.9065V63.0912C16.4982 69.7105 21.297 75.1952 27.6047 76.2902C28.3557 76.4204 29.1206 76.5018 29.9088 76.5018H63.0935C63.8817 76.5018 64.6466 76.4204 65.3976 76.2902C71.703 75.1952 76.5041 69.7105 76.5041 63.0912V29.9065C76.5041 23.2872 71.703 17.8002 65.3952 16.7075H65.3929ZM70.6893 63.0912C70.6893 67.2809 67.2808 70.6893 63.0912 70.6893H29.9064C25.7168 70.6893 22.3083 67.2809 22.3083 63.0912V29.9065C22.3083 25.7168 25.7168 22.3084 29.9064 22.3084H63.0912C67.2808 22.3084 70.6893 25.7168 70.6893 29.9065V63.0912Z" fill="#313D4C"/>
<path d="M56.4556 32.4338L46.4884 42.401L44.447 44.4424C43.3124 45.577 43.3124 47.4161 44.447 48.553C44.6423 48.7483 44.8771 48.8622 45.105 48.9901C45.2119 49.0505 45.3003 49.1459 45.4119 49.1924C45.7606 49.3342 46.1303 49.4039 46.5 49.4039C46.8743 49.4039 47.2463 49.3319 47.5974 49.1877C47.7136 49.1412 47.8043 49.0389 47.9159 48.9761C48.1368 48.8506 48.367 48.739 48.5553 48.5507L60.5662 36.5397C61.7008 35.4051 61.7008 33.566 60.5662 32.4291C59.4316 31.2922 57.5926 31.2945 56.4556 32.4291V32.4338Z" fill="#313D4C"/>
</g>
<defs>
<clipPath id="clip0_716_412">
<rect width="93" height="93" fill="white"/>
</clipPath>
</defs>
</svg>
