<svg width="179" height="179" viewBox="0 0 179 179" fill="none" xmlns="http://www.w3.org/2000/svg">
<path fill-rule="evenodd" clip-rule="evenodd" d="M99.0841 4.32955C93.6932 -1.44318 84.5477 -1.44318 79.1568 4.32955L65.9568 18.4568C63.2659 21.3295 59.4659 22.9114 55.5295 22.7659L36.2114 22.1205C28.3295 21.8477 21.8568 28.3205 22.1205 36.2114L22.775 55.5295C22.9114 59.4659 21.3386 63.2659 18.4659 65.9568L4.32955 79.1568C-1.44318 84.5477 -1.44318 93.6932 4.32955 99.0841L18.4568 112.284C21.3295 114.975 22.9114 118.775 22.7659 122.711L22.1205 142.03C21.8477 149.911 28.3205 156.384 36.2114 156.12L55.5295 155.466C59.4659 155.33 63.2659 156.902 65.9568 159.775L79.1568 173.911C84.5477 179.675 93.6932 179.675 99.0841 173.911L112.284 159.775C114.975 156.902 118.775 155.32 122.711 155.466L142.039 156.111C149.92 156.384 156.393 149.911 156.13 142.02L155.475 122.702C155.339 118.766 156.911 114.966 159.784 112.275L173.92 99.075C179.684 93.6841 179.684 84.5386 173.92 79.1477L159.784 65.9477C156.911 63.2568 155.33 59.4568 155.475 55.5205L156.12 36.1932C156.393 28.3114 149.92 21.8386 142.03 22.1023L122.711 22.7568C118.775 22.8932 114.975 21.3205 112.284 18.4477L99.0841 4.32955ZM43.6659 92.6659L77.6659 126.666L134.03 65.1204L120.666 52.7568L77.0295 100.302L56.4841 79.7568L43.6659 92.6659Z" fill="#A3A3A3"/>
</svg>
