<svg width="551" height="148" viewBox="0 0 551 148" fill="none" xmlns="http://www.w3.org/2000/svg">
<path d="M101.888 19.7V124.02H78.592V81.652H32.512V124.02H9.216V19.7H32.512V61.044H78.592V19.7H101.888ZM152.341 125.812C145.258 125.812 138.944 124.105 133.397 120.692C127.85 117.364 123.541 112.713 120.469 106.74C117.397 100.767 115.861 94.0253 115.861 86.516C115.861 79.0067 117.397 72.2653 120.469 66.292C123.541 60.3187 127.85 55.668 133.397 52.34C138.944 48.9267 145.258 47.22 152.341 47.22C161.984 47.22 169.152 50.3773 173.845 56.692V49.012H196.629V124.02H173.845V116.34C169.152 122.655 161.984 125.812 152.341 125.812ZM155.925 106.356C161.472 106.356 165.909 104.521 169.237 100.852C172.565 97.0973 174.229 92.3187 174.229 86.516C174.229 80.7133 172.565 75.9773 169.237 72.308C165.909 68.5533 161.472 66.676 155.925 66.676C150.549 66.676 146.24 68.5533 142.997 72.308C139.754 75.9773 138.133 80.7133 138.133 86.516C138.133 92.3187 139.754 97.0973 142.997 100.852C146.24 104.521 150.549 106.356 155.925 106.356ZM213.826 49.012H236.61V56.692C241.303 50.3773 248.301 47.22 257.602 47.22C263.405 47.22 268.525 48.5853 272.962 51.316C277.399 53.9613 280.813 57.8013 283.202 62.836C285.677 67.8707 286.914 73.8013 286.914 80.628V124.02H264.13V84.468C264.13 78.7507 262.978 74.3987 260.674 71.412C258.455 68.34 255.213 66.804 250.946 66.804C246.509 66.804 243.01 68.468 240.45 71.796C237.89 75.124 236.61 79.6893 236.61 85.492V124.02H213.826V49.012ZM330.486 125.812C324.683 125.812 319.563 124.447 315.126 121.716C310.689 119.071 307.233 115.231 304.758 110.196C302.369 105.161 301.174 99.2307 301.174 92.404V49.012H323.958V88.564C323.958 94.2813 325.067 98.676 327.286 101.748C329.59 104.735 332.875 106.228 337.142 106.228C341.579 106.228 345.078 104.564 347.638 101.236C350.198 97.908 351.478 93.3427 351.478 87.54V49.012H374.262V124.02H351.478V116.34C346.785 122.655 339.787 125.812 330.486 125.812ZM391.451 49.012H414.235V56.18C416.539 53.108 419.142 50.8467 422.043 49.396C425.03 47.9453 428.571 47.22 432.667 47.22C437.36 47.22 441.627 48.1587 445.467 50.036C449.307 51.828 452.464 54.4733 454.939 57.972C457.755 54.388 461.211 51.7 465.307 49.908C469.403 48.116 474.267 47.22 479.899 47.22C485.616 47.22 490.651 48.5853 495.003 51.316C499.355 53.9613 502.726 57.8013 505.115 62.836C507.504 67.8707 508.699 73.8013 508.699 80.628V124.02H485.915V84.468C485.915 78.7507 484.848 74.3987 482.715 71.412C480.582 68.34 477.424 66.804 473.243 66.804C469.574 66.804 466.715 68.212 464.667 71.028C462.704 73.844 461.638 77.94 461.467 83.316V124.02H438.683V84.468C438.683 78.7507 437.616 74.3987 435.483 71.412C433.35 68.34 430.192 66.804 426.011 66.804C422.342 66.804 419.483 68.212 417.435 71.028C415.472 73.844 414.406 77.94 414.235 83.316V124.02H391.451V49.012Z" fill="black"/>
<circle cx="533.5" cy="18" r="17.5" fill="black"/>
</svg>
