<svg width="93" height="93" viewBox="0 0 93 93" fill="none" xmlns="http://www.w3.org/2000/svg">
<g clip-path="url(#clip0_434_634)">
<path d="M76.9366 11.1576H16.0635C12.3272 11.1576 9.30005 14.1847 9.30005 17.921V76.5389C9.30005 80.2752 12.3272 83.3023 16.0635 83.3023H65.6627L83.7001 65.265V17.921C83.7001 14.1847 80.6729 11.1576 76.9366 11.1576Z" fill="#E5E9EE"/>
<path d="M25.5751 45.2281C25.5751 44.1749 26.1168 43.1937 27.0119 42.6357L34.0078 38.2601C34.7216 37.8137 35.547 37.5765 36.3886 37.5765C38.8671 37.5765 40.8782 39.5853 40.8782 42.0661V67.9992C40.8782 70.0428 39.2205 71.7006 37.1768 71.7006C35.1331 71.7006 33.4754 70.0428 33.4754 67.9992V45.8373L30.2437 47.8321C28.207 49.0899 25.5797 47.6252 25.5797 45.2304L25.5751 45.2281Z" fill="#EF4452"/>
<path d="M44.7214 41.0292C44.7214 39.3714 46.0653 38.0276 47.723 38.0276H64.7257C66.2161 38.0276 67.4251 39.2366 67.4251 40.7269C67.4251 42.4614 67.0693 44.1749 66.3765 45.7652L56.0907 69.429C55.4908 70.8078 54.1307 71.7006 52.6264 71.7006C49.8876 71.7006 48.0601 68.8803 49.1761 66.381L59.1667 44.0331H47.7253C46.0676 44.0331 44.7238 42.6892 44.7238 41.0315L44.7214 41.0292Z" fill="#EF4452"/>
<path d="M16.0635 11.1576H76.9366C80.6706 11.1576 83.7001 14.1894 83.7001 17.921V28.816H9.30005V17.921C9.30005 14.1871 12.3318 11.1576 16.0635 11.1576Z" fill="#FDAEB3"/>
<path d="M23.9545 8.33972V13.9755" stroke="#4B596A" stroke-width="2.424" stroke-miterlimit="10" stroke-linecap="round"/>
<path d="M69.0455 8.33972V13.9755" stroke="#4B596A" stroke-width="2.424" stroke-miterlimit="10" stroke-linecap="round"/>
<path fill-rule="evenodd" clip-rule="evenodd" d="M70.1732 65.2673H83.7001L65.6627 83.3047V69.7778C65.6627 67.2878 67.6808 65.2697 70.1709 65.2697L70.1732 65.2673Z" fill="#C0C7D1"/>
</g>
<defs>
<clipPath id="clip0_434_634">
<rect width="93" height="93" fill="white"/>
</clipPath>
</defs>
</svg>
