<svg width="118" height="118" viewBox="0 0 118 118" fill="none" xmlns="http://www.w3.org/2000/svg">
<g clip-path="url(#clip0_434_722)">
<path d="M18.1802 109.574L86.9524 84.8552L30.2305 28.329L5.62783 97.0371C2.83332 104.841 10.3793 112.378 18.1802 109.574Z" fill="#EF4452"/>
<path d="M30.5489 13.7525C33.5923 13.7525 36.0595 11.2853 36.0595 8.2418C36.0595 5.19835 33.5923 2.73114 30.5489 2.73114C27.5054 2.73114 25.0382 5.19835 25.0382 8.2418C25.0382 11.2853 27.5054 13.7525 30.5489 13.7525Z" fill="#EDCCF8"/>
<path d="M89.4713 83.3575C95.3815 77.4473 87.2573 59.7409 71.3254 43.809C55.3935 27.8771 37.687 19.7529 31.7769 25.6631C25.8667 31.5732 33.9909 49.2797 49.9228 65.2116C65.8547 81.1435 83.5612 89.2677 89.4713 83.3575Z" fill="#A41926"/>
<path d="M50.3359 40.7295C50.0017 40.7295 49.6604 40.6835 49.3218 40.5869C47.3643 40.0281 46.2292 37.987 46.7881 36.028C48.5469 29.8716 48.4518 23.3695 46.5144 17.2246C45.9008 15.2815 46.9797 13.2116 48.9214 12.5994C50.8617 11.9858 52.9344 13.0632 53.5466 15.0064C55.9205 22.5326 56.0357 30.5025 53.8808 38.0532C53.4184 39.6723 51.942 40.7295 50.3359 40.7295Z" fill="#B44BD7"/>
<path d="M86.6375 51.4968C85.4953 51.4968 84.3703 50.9682 83.6487 49.9728C82.4531 48.3235 82.8219 46.0189 84.4712 44.8233C92.2711 39.171 101.509 35.9589 111.184 35.5354C113.235 35.5138 114.941 37.0248 115.03 39.0587C115.118 41.094 113.54 42.8153 111.507 42.9046C103.277 43.2633 95.4256 45.9929 88.7982 50.7953C88.1443 51.2692 87.388 51.4968 86.6375 51.4968Z" fill="#EF4452"/>
<path d="M101.422 70.11C100.952 70.11 100.474 70.0193 100.013 69.8277C97.5358 68.8021 94.9502 68.0113 92.3301 67.4755C84.1499 65.806 75.7262 66.6184 67.9753 69.8277C66.084 70.6041 63.9349 69.7125 63.157 67.8327C62.3778 65.9501 63.2708 63.7937 65.152 63.0145C74.2714 59.2391 84.1816 58.2841 93.8051 60.2503C96.8861 60.8783 99.924 61.8088 102.834 63.0145C104.716 63.7937 105.609 65.9501 104.83 67.8313C104.242 69.2515 102.87 70.11 101.422 70.11Z" fill="#7896FF"/>
<path d="M63.0029 51.8309C61.8952 51.8309 60.8005 51.334 60.0745 50.3876C58.8343 48.7729 59.1397 46.4581 60.7559 45.2179C69.626 38.4119 75.3143 28.5594 76.7735 17.4738C77.0385 15.4558 78.8938 14.0297 80.9104 14.2991C82.9298 14.5641 84.3515 16.4165 84.0851 18.436C82.3695 31.4748 75.6787 43.063 65.2442 51.0689C64.5759 51.5832 63.7865 51.8309 63.0029 51.8309Z" fill="#4A81EC"/>
<path d="M46.4046 58.2214L46.406 52.6856C46.4063 51.5335 45.4726 50.5993 44.3205 50.599L38.7846 50.5977C37.6325 50.5974 36.6984 51.5311 36.6981 52.6832L36.6967 58.2191C36.6965 59.3711 37.6302 60.3053 38.7822 60.3056L44.3181 60.3069C45.4702 60.3072 46.4043 59.3735 46.4046 58.2214Z" fill="white"/>
<path d="M69.6648 1.6382L64.6098 4.18796C63.5578 4.71858 63.1351 6.00156 63.6657 7.05356L66.2155 12.1086C66.7461 13.1606 68.0291 13.5833 69.0811 13.0526L74.1362 10.5029C75.1882 9.97226 75.6108 8.68929 75.0802 7.63729L72.5304 2.58223C71.9998 1.53023 70.7168 1.10757 69.6648 1.6382Z" fill="#7896FF"/>
<path d="M110.138 86.7379L111.853 81.3422C112.21 80.2193 111.589 79.0197 110.466 78.6627L105.071 76.9477C103.948 76.5907 102.748 77.2117 102.391 78.3346L100.676 83.7302C100.319 84.8531 100.94 86.0527 102.063 86.4097L107.459 88.1248C108.581 88.4817 109.781 87.8608 110.138 86.7379Z" fill="#A8BFFF"/>
<path d="M98.9243 31.0163C101.375 31.0163 103.362 29.0293 103.362 26.5782C103.362 24.1271 101.375 22.1401 98.9243 22.1401C96.4732 22.1401 94.4862 24.1271 94.4862 26.5782C94.4862 29.0293 96.4732 31.0163 98.9243 31.0163Z" fill="#FFC84D"/>
<path d="M10.3381 50.2533C12.7892 50.2533 14.7762 48.2663 14.7762 45.8152C14.7762 43.3641 12.7892 41.3771 10.3381 41.3771C7.88703 41.3771 5.90002 43.3641 5.90002 45.8152C5.90002 48.2663 7.88703 50.2533 10.3381 50.2533Z" fill="#A8BFFF"/>
<path d="M72.4643 108.112C75.3233 108.112 77.6409 105.795 77.6409 102.936C77.6409 100.077 75.3233 97.759 72.4643 97.759C69.6054 97.759 67.2877 100.077 67.2877 102.936C67.2877 105.795 69.6054 108.112 72.4643 108.112Z" fill="#FFC84D"/>
</g>
<defs>
<clipPath id="clip0_434_722">
<rect width="118" height="118" fill="white"/>
</clipPath>
</defs>
</svg>
