<svg width="84" height="85" viewBox="0 0 84 85" fill="none" xmlns="http://www.w3.org/2000/svg">
<mask id="mask0_434_384" style="mask-type:alpha" maskUnits="userSpaceOnUse" x="0" y="0" width="84" height="85">
<rect x="0.457764" y="0.728882" width="83.5423" height="83.5423" fill="#D9D9D9"/>
</mask>
<g mask="url(#mask0_434_384)">
<path d="M32.6564 77.3093L31.264 66.1704C30.5098 65.8803 29.7991 65.5322 29.1319 65.1261C28.4648 64.72 27.8121 64.2849 27.1739 63.8208L16.8182 68.1719L7.24561 51.6375L16.209 44.8497C16.151 44.4436 16.122 44.052 16.122 43.6749V41.3253C16.122 40.9482 16.151 40.5566 16.209 40.1504L7.24561 33.3626L16.8182 16.8282L27.1739 21.1794C27.8121 20.7153 28.4793 20.2802 29.1755 19.874C29.8716 19.4679 30.5678 19.1198 31.264 18.8298L32.6564 7.6908H51.8015L53.1939 18.8298C53.9481 19.1198 54.6587 19.4679 55.3259 19.874C55.9931 20.2802 56.6458 20.7153 57.2839 21.1794L67.6397 16.8282L77.2123 33.3626L68.2489 40.1504C68.3069 40.5566 68.3359 40.9482 68.3359 41.3253V43.6749C68.3359 44.052 68.2779 44.4436 68.1618 44.8497L77.1252 51.6375L67.5527 68.1719L57.2839 63.8208C56.6458 64.2849 55.9786 64.72 55.2824 65.1261C54.5862 65.5322 53.89 65.8803 53.1939 66.1704L51.8015 77.3093H32.6564ZM42.403 54.6833C45.7679 54.6833 48.6396 53.494 51.0183 51.1154C53.3969 48.7367 54.5862 45.865 54.5862 42.5001C54.5862 39.1352 53.3969 36.2634 51.0183 33.8848C48.6396 31.5061 45.7679 30.3168 42.403 30.3168C38.9801 30.3168 36.0938 31.5061 33.7442 33.8848C31.3945 36.2634 30.2197 39.1352 30.2197 42.5001C30.2197 45.865 31.3945 48.7367 33.7442 51.1154C36.0938 53.494 38.9801 54.6833 42.403 54.6833Z" fill="#B0B9C2"/>
</g>
</svg>
